<svg xmlns="http://www.w3.org/2000/svg" width="133.357" height="50.259" viewBox="0 0 133.357 50.259">
  <g id="Grupo_9" data-name="Grupo 9" transform="translate(-140 -70)">
    <g id="Capa_2" data-name="Capa 2" transform="translate(140 70)">
      <g id="Capa_1" data-name="Capa 1">
        <path id="Trazado_1" data-name="Trazado 1" d="M4.721,30.2a12.27,12.27,0,0,1,7.293-1.953q4.964,0,7.814,2.48a8.836,8.836,0,0,1,2.829,7.09V53.77H16.6V50.863h-.7a6.084,6.084,0,0,1-2.125,2.459,7.754,7.754,0,0,1-4.584,1.151,10,10,0,0,1-6.548-2.131A7.035,7.035,0,0,1,.07,46.508a6.83,6.83,0,0,1,2.6-5.73,11.153,11.153,0,0,1,6.991-2.032H16.5V37.34a3.985,3.985,0,0,0-1.151-2.969,4.776,4.776,0,0,0-3.459-1.13,5.209,5.209,0,0,0-3.521,1.068,4.912,4.912,0,0,0-1.563,2.881L.971,35.236A9.793,9.793,0,0,1,4.721,30.2ZM7.477,48.561a4.881,4.881,0,0,0,3.032.828,6.2,6.2,0,0,0,4.334-1.526,5.157,5.157,0,0,0,1.677-3.985v-.4H10.139a4.308,4.308,0,0,0-2.756.792,2.558,2.558,0,0,0-1.005,2.084,2.6,2.6,0,0,0,1.078,2.183Z" transform="translate(-0.033 -13.534)" fill="#fff"/>
        <path id="Trazado_2" data-name="Trazado 2" d="M54.574,30.226A11.627,11.627,0,0,1,61.736,28.2a11.855,11.855,0,0,1,6.772,1.828,8.981,8.981,0,0,1,3.646,4.933l-5.73,1.756a4.3,4.3,0,0,0-4.688-3.709,4.9,4.9,0,0,0-2.756.651,2.084,2.084,0,0,0-.948,1.8,2.032,2.032,0,0,0,.974,1.828,9.012,9.012,0,0,0,3.032,1.042l1.3.25a33.11,33.11,0,0,1,5.308,1.453,7.777,7.777,0,0,1,3.282,2.308A6.053,6.053,0,0,1,73.16,46.3a7.141,7.141,0,0,1-2.808,6.011,12.17,12.17,0,0,1-7.611,2.141,13.975,13.975,0,0,1-7.991-2.084A8.694,8.694,0,0,1,51,46.328l5.814-1.5q.854,4.808,5.913,4.808a5.423,5.423,0,0,0,3.2-.8,2.443,2.443,0,0,0,1.1-2.052,2.084,2.084,0,0,0-1.042-1.828,10.215,10.215,0,0,0-3.459-1.13l-1.3-.25a17.539,17.539,0,0,1-6.887-2.579,5.927,5.927,0,0,1-2.433-5.136,6.694,6.694,0,0,1,2.662-5.631Z" transform="translate(-24.433 -13.51)" fill="#fff"/>
        <path id="Trazado_3" data-name="Trazado 3" d="M116.381,29.54h6.814L109.567,64.411h-6.824l3.506-8.418L95.94,29.54h6.8l6.574,17.951h.521Z" transform="translate(-45.962 -14.152)" fill="#fff"/>
        <path id="Trazado_4" data-name="Trazado 4" d="M160.049,32.879h.521q1.953-4.11,7.668-4.11A9.658,9.658,0,0,1,173.3,30.1,8.986,8.986,0,0,1,176.7,33.78a11.747,11.747,0,0,1,1.183,5.412V54.018h-6.314V39.489a5.821,5.821,0,0,0-1.354-4.2,5.3,5.3,0,0,0-3.959-1.407,5.537,5.537,0,0,0-4.522,1.933,8.339,8.339,0,0,0-1.563,5.381V54.018H153.84V29.17h6.209Z" transform="translate(-73.701 -13.782)" fill="#fff"/>
        <path id="Trazado_5" data-name="Trazado 5" d="M209,34.555a12.169,12.169,0,0,1,4.688-4.688,13.023,13.023,0,0,1,6.558-1.677,12.437,12.437,0,0,1,8.194,2.631,11.637,11.637,0,0,1,4.032,6.986l-6.11,1.3a6.491,6.491,0,0,0-1.8-3.907,5.7,5.7,0,0,0-4.209-1.5,6.251,6.251,0,0,0-4.876,2.058,7.923,7.923,0,0,0-1.881,5.558,7.942,7.942,0,0,0,1.881,5.563,6.251,6.251,0,0,0,4.85,2.047,5.885,5.885,0,0,0,4.23-1.453,7.022,7.022,0,0,0,1.98-4.006l6.131,1.459a12.809,12.809,0,0,1-4.256,6.913,12.414,12.414,0,0,1-8.168,2.6,13.086,13.086,0,0,1-6.558-1.677,12.205,12.205,0,0,1-4.688-4.688A14.252,14.252,0,0,1,209,34.555Z" transform="translate(-99.306 -13.504)" fill="#fff"/>
        <rect id="Rectángulo_1" data-name="Rectángulo 1" width="24.999" height="5.241" fill="#fff"/>
      </g>
    </g>
  </g>
</svg>
