<svg id="Capa_2" data-name="Capa 2" xmlns="http://www.w3.org/2000/svg" width="60.195" height="98.578" viewBox="0 0 60.195 98.578">
  <g id="Capa_1" data-name="Capa 1">
    <path id="Trazado_6" data-name="Trazado 6" d="M11.271,32.954q6.56-4.7,17.561-4.7,11.954,0,18.815,5.971t6.811,17.071V89.7H39.87v-7H38.177a14.651,14.651,0,0,1-5.118,5.92c-2.509,1.844-6.272,2.772-11.038,2.772q-9.5,0-15.767-5.13T.07,72.214q0-8.931,6.272-13.8t16.833-4.892H39.632V50.138a9.6,9.6,0,0,0-2.772-7.15c-1.856-1.806-4.628-2.722-8.329-2.722a12.543,12.543,0,0,0-8.479,2.571,11.828,11.828,0,0,0-3.763,6.936L2.24,45.071a23.581,23.581,0,0,1,9.031-12.117Zm6.635,44.2a11.753,11.753,0,0,0,7.3,1.994,14.927,14.927,0,0,0,10.436-3.675,12.418,12.418,0,0,0,4.039-9.6v-.966H24.317a10.373,10.373,0,0,0-6.635,1.907,6.159,6.159,0,0,0-2.421,5.017,6.272,6.272,0,0,0,2.6,5.256Z" transform="translate(0.018 7.185)" fill="#fff"/>
    <rect id="Rectángulo_3" data-name="Rectángulo 3" width="60.195" height="12.619" fill="#fff"/>
  </g>
</svg>
